<svg width="195" height="195" viewBox="0 0 195 195" fill="none" xmlns="http://www.w3.org/2000/svg">
<path d="M93.6768 43.0517C96.0534 43.0517 98.0547 41.4256 98.0547 39.2993C98.0547 37.1729 96.0534 35.5469 93.6768 35.5469C91.3003 35.5469 89.299 37.1729 89.299 39.2993C89.299 41.4256 91.3003 43.0517 93.6768 43.0517V43.0517ZM93.6768 36.9228C95.428 36.9228 96.8038 38.0485 96.8038 39.4244C96.8038 40.8002 95.428 41.926 93.6768 41.926C91.9257 41.926 90.5498 40.8002 90.5498 39.4244C90.5498 38.0485 91.9257 36.9228 93.6768 36.9228V36.9228ZM113.69 88.3307C113.69 80.7008 107.436 74.4468 99.8058 74.4468C92.1759 74.4468 85.9219 80.7008 85.9219 88.3307C85.9219 95.9606 92.1759 102.215 99.8058 102.215C107.436 102.215 113.69 95.9606 113.69 88.3307ZM99.6807 100.338C93.0514 100.338 87.673 94.9599 87.673 88.3307C87.673 81.7014 93.0514 76.323 99.6807 76.323C106.31 76.323 111.688 81.7014 111.688 88.3307C111.813 94.9599 106.31 100.338 99.6807 100.338ZM119.819 82.0767C119.318 82.0767 118.818 82.4519 118.818 83.0773C118.818 83.7027 119.193 84.078 119.819 84.078H133.077C133.577 84.078 134.078 83.7027 134.078 83.0773C134.078 82.4519 133.703 82.0767 133.077 82.0767H119.819ZM118.818 94.4596C118.818 94.9599 119.193 95.4603 119.819 95.4603H140.457C140.957 95.4603 141.457 95.085 141.457 94.4596C141.457 93.8342 141.082 93.459 140.457 93.459H119.819C119.318 93.459 118.818 93.9593 118.818 94.4596Z" fill="#999999" fill-opacity="0.7"/>
<path d="M27.4956 85.341C30.3724 85.341 32.7489 82.9644 32.7489 80.0876C32.7489 77.2107 30.3724 74.8342 27.4956 74.8342C24.6187 74.8342 22.2422 77.2107 22.2422 80.0876C22.2422 82.9644 24.4936 85.341 27.4956 85.341ZM27.4956 76.5853C29.3718 76.5853 30.8727 78.0863 30.8727 79.9625C30.8727 81.8387 29.3718 83.3397 27.4956 83.3397C25.6194 83.3397 24.1184 81.8387 24.1184 79.9625C24.1184 78.0863 25.6194 76.5853 27.4956 76.5853ZM165.959 95.3474C166.209 95.3474 166.46 95.2223 166.585 95.0972L170.712 91.3448L174.59 94.5969C174.965 94.847 175.465 94.847 175.841 94.5969L179.968 91.3448L183.721 94.9721C184.096 95.3474 184.721 95.3474 185.097 94.9721C185.472 94.5969 185.472 93.9715 185.097 93.5962L180.719 89.3435C180.344 88.9683 179.843 88.9683 179.468 89.3435L175.34 92.5956L171.338 89.3435C170.963 89.0934 170.462 89.0934 170.087 89.3435L165.334 93.5962C164.959 93.9715 164.959 94.5969 165.209 94.9721C165.459 95.2223 165.709 95.3474 165.959 95.3474ZM78.4032 93.3461C78.9035 93.3461 79.4038 92.9708 79.4038 92.3454V82.339C79.4038 81.8387 79.0286 81.3384 78.4032 81.3384C77.7778 81.3384 77.4025 81.7136 77.4025 82.339V92.3454C77.4025 92.9708 77.9029 93.3461 78.4032 93.3461ZM77.4025 105.854C77.4025 108.231 79.4038 110.232 81.7803 110.232H82.9061C83.4064 110.232 83.9067 109.857 83.9067 109.231C83.9067 108.606 83.5315 108.231 82.9061 108.231H81.7803C80.4045 108.231 79.2788 107.105 79.2788 105.729V102.352C79.2788 101.852 78.9035 101.351 78.2781 101.351C77.6527 101.351 77.2775 101.726 77.2775 102.352V105.854H77.4025ZM151.575 77.3358V87.3422C151.575 87.8426 151.95 88.3429 152.576 88.3429C153.201 88.3429 153.576 87.9676 153.576 87.3422V77.3358C153.576 76.8355 153.201 76.3352 152.576 76.3352C151.95 76.3352 151.575 76.8355 151.575 77.3358ZM92.7874 66.3288C92.7874 65.8284 92.4122 65.3281 91.7868 65.3281H81.7803C79.4038 65.3281 77.4025 67.3294 77.4025 69.7059V72.3326C77.4025 72.8329 77.7778 73.3333 78.4032 73.3333C79.0286 73.3333 79.4038 72.958 79.4038 72.3326V69.7059C79.4038 68.3301 80.5296 67.2043 81.9054 67.2043H91.9118C92.4122 67.3294 92.7874 66.9542 92.7874 66.3288ZM141.944 67.3294H149.073C149.824 67.3294 150.449 67.5796 150.95 68.205C151.075 68.4551 151.45 68.4551 151.7 68.4551C151.95 68.4551 152.2 68.33 152.326 68.205C152.701 67.8297 152.701 67.2043 152.326 66.8291C151.45 65.9535 150.324 65.3281 149.073 65.3281H141.944C141.444 65.3281 140.943 65.7034 140.943 66.3288C140.943 66.9542 141.319 67.3294 141.944 67.3294ZM152.451 96.348C151.95 96.348 151.45 96.7232 151.45 97.3486V105.979C151.45 106.354 151.325 106.73 151.2 106.98C150.95 107.48 151.2 107.98 151.7 108.231C151.825 108.231 151.95 108.356 152.075 108.356C152.451 108.356 152.826 108.106 152.951 107.855C153.201 107.355 153.326 106.73 153.326 106.104V97.4737C153.451 96.8483 152.951 96.348 152.451 96.348ZM111.925 67.3294C112.425 67.3294 112.925 66.9542 112.925 66.3288C112.925 65.7034 112.55 65.3281 111.925 65.3281H101.918C101.418 65.3281 100.918 65.7034 100.918 66.3288C100.918 66.9542 101.293 67.3294 101.918 67.3294H111.925ZM113.05 110.357H123.057C123.557 110.357 124.057 109.982 124.057 109.356C124.057 108.731 123.682 108.356 123.057 108.356H113.05C112.55 108.356 112.05 108.731 112.05 109.356C112.05 109.982 112.425 110.357 113.05 110.357ZM93.0376 108.481C92.5372 108.481 92.0369 108.856 92.0369 109.481C92.0369 110.107 92.4122 110.482 93.0376 110.482H103.044C103.544 110.482 104.045 110.107 104.045 109.481C104.045 108.856 103.669 108.481 103.044 108.481H93.0376Z" fill="#999999" fill-opacity="0.7"/>
<path d="M59.419 136.974H127.963C131.09 136.974 133.592 134.472 133.592 131.345V110.332H142.973C143.473 110.332 143.973 109.956 143.973 109.331C143.973 108.706 143.598 108.33 142.973 108.33H133.466C133.341 108.205 133.216 108.205 133.091 108.205C132.841 108.205 132.716 108.33 132.591 108.455C132.341 108.58 132.091 108.956 132.091 109.206C132.091 109.456 132.216 109.706 132.466 109.956V131.22C132.466 133.722 130.465 135.598 128.088 135.598H59.419C56.9174 135.598 55.0412 133.597 55.0412 131.22V49.7928C55.0412 47.2912 57.0424 45.415 59.419 45.415H68.9251C68.9251 47.4163 70.5511 49.0423 72.5524 49.0423H114.704C116.706 49.0423 118.332 47.4163 118.332 45.415H127.963C130.464 45.415 132.341 47.4163 132.341 49.7928V65.678C132.216 65.5529 131.965 65.4278 131.84 65.4278H126.712V57.7979C126.712 54.6709 124.21 52.1693 121.083 52.1693H66.4235C63.2965 52.1693 60.7949 54.6709 60.7949 57.7979V123.215C60.7949 126.342 63.2965 128.843 66.4235 128.843H121.209C124.336 128.843 126.837 126.342 126.837 123.215V110.081C126.837 109.706 126.587 109.456 126.212 109.456C125.837 109.456 125.586 109.706 125.586 110.081V123.215C125.586 125.716 123.585 127.593 121.209 127.593H66.4235C63.9219 127.593 62.0457 125.591 62.0457 123.215V57.7979C62.0457 55.2963 64.0469 53.4201 66.4235 53.4201H121.209C123.71 53.4201 125.586 55.4214 125.586 57.7979V65.4278H121.959C121.459 65.4278 120.958 65.8031 120.958 66.4285C120.958 67.0539 121.334 67.4291 121.959 67.4291H131.965C132.466 67.4291 132.841 67.0539 132.841 66.5535H133.091C133.466 66.5535 133.717 66.3034 133.717 65.9281V49.7928C133.717 46.6658 131.215 44.1642 128.088 44.1642H118.457V43.0385C118.457 41.0372 116.831 39.4111 114.829 39.4111H102.947C102.947 35.2835 98.8192 31.7812 93.816 31.7812C88.8128 31.7812 84.6852 35.1584 84.6852 39.4111H72.5524C70.5511 39.4111 68.9251 41.0372 68.9251 43.0385V44.1642H59.419C56.292 44.1642 53.7904 46.6658 53.7904 49.7928V131.345C53.7904 134.472 56.292 136.974 59.419 136.974ZM70.1759 42.9134C70.1759 41.6626 71.3016 40.5369 72.5524 40.5369H85.936L85.8109 39.7864V39.161C85.8109 35.6587 89.3131 32.7819 93.6909 32.7819C98.0687 32.7819 101.571 35.6587 101.571 39.161V39.7864L101.446 40.5369H114.704C115.955 40.5369 117.081 41.6626 117.081 42.9134V45.2899C117.081 46.5407 115.955 47.6664 114.704 47.6664H72.5524C71.3016 47.6664 70.1759 46.5407 70.1759 45.2899V42.9134ZM42.283 152.359H152.854C153.354 152.359 153.854 151.983 153.854 151.358C153.854 150.732 153.479 150.357 152.854 150.357H42.283C41.7827 150.357 41.2823 150.732 41.2823 151.358C41.2823 151.983 41.7827 152.359 42.283 152.359ZM189.627 159.363H134.592C134.092 159.363 133.592 159.738 133.592 160.364C133.592 160.989 133.967 161.364 134.592 161.364H189.627C190.128 161.364 190.628 160.989 190.628 160.364C190.628 159.738 190.128 159.363 189.627 159.363ZM129.339 159.363H121.584C121.083 159.363 120.583 159.738 120.583 160.364C120.583 160.989 120.958 161.364 121.584 161.364H129.339C129.839 161.364 130.339 160.989 130.339 160.364C130.339 159.738 129.964 159.363 129.339 159.363ZM116.456 159.363H4.00845C3.50813 159.363 3.00781 159.738 3.00781 160.364C3.00781 160.989 3.38305 161.364 4.00845 161.364H116.456C116.956 161.364 117.456 160.989 117.456 160.364C117.456 159.738 116.956 159.363 116.456 159.363ZM163.361 134.972C166.613 134.972 169.239 132.346 169.239 129.094C169.239 125.842 166.613 123.215 163.361 123.215C160.108 123.215 157.482 125.842 157.482 129.094C157.607 132.346 160.234 134.972 163.361 134.972ZM163.361 125.216C165.612 125.216 167.363 126.967 167.363 129.219C167.363 131.47 165.612 133.221 163.361 133.221C161.109 133.221 159.358 131.47 159.358 129.219C159.483 126.967 161.234 125.216 163.361 125.216ZM9.13674 120.838C9.3869 120.838 9.63706 120.713 9.76214 120.588L13.8898 116.836L17.7673 120.088C18.1425 120.338 18.6428 120.338 19.0181 120.088L23.1457 116.836L26.8981 120.463C27.2734 120.838 27.8988 120.838 28.274 120.463C28.6492 120.088 28.6492 119.462 28.274 119.087L23.7711 114.96C23.3959 114.584 22.8956 114.584 22.5203 114.96L18.3927 118.212L14.3901 114.96C14.0149 114.709 13.5145 114.709 13.1393 114.96L8.38626 119.212C8.01102 119.588 8.01102 120.213 8.26118 120.588C8.63642 120.713 8.88658 120.838 9.13674 120.838Z" fill="#999999" fill-opacity="0.7"/>
<path d="M99.5682 74.3281C91.48 74.3281 84.9219 80.883 84.9219 88.9745C84.9219 97.0659 91.48 103.621 99.5682 103.621C107.656 103.621 114.215 97.0659 114.215 88.9745C114.215 80.883 107.656 74.3281 99.5682 74.3281ZM99.5682 97.1934C98.7149 97.1934 98.0251 96.5003 98.0251 95.6503C98.0251 94.797 98.7149 94.1039 99.5682 94.1039C100.421 94.1039 101.111 94.797 101.111 95.6503C101.111 96.5003 100.421 97.1934 99.5682 97.1934ZM102.177 82.4L100.866 90.5503C100.69 91.6095 100.108 92.4759 99.5682 92.4759C99.0288 92.4759 98.4469 91.6095 98.2703 90.5503L96.9593 82.4C96.7828 81.3407 97.5184 80.1867 98.5907 80.1867H100.542C101.618 80.1867 102.354 81.3374 102.177 82.4V82.4Z" fill="#02993b"/>
</svg>